<svg width="72" height="101" viewBox="0 0 72 101" fill="none" xmlns="http://www.w3.org/2000/svg">
<g clip-path="url(#clip0)">
<path d="M35.9991 55.522C35.6091 55.522 35.219 55.3706 34.9219 55.0693L0.446322 20.1149C-0.149425 19.5109 -0.149425 18.5346 0.446322 17.9306C1.04207 17.3265 2.00501 17.3265 2.60076 17.9306L35.9991 51.7928L69.3975 17.9306C69.9932 17.3265 70.9562 17.3265 71.5519 17.9306C72.1477 18.5346 72.1477 19.5109 71.5519 20.1149L37.0763 55.0693C36.7792 55.3721 36.3892 55.522 35.9991 55.522Z" fill="white"/>
</g>
<g clip-path="url(#clip1)">
<path d="M35.9991 83.522C35.6091 83.522 35.219 83.3706 34.9219 83.0693L0.446322 48.1149C-0.149425 47.5109 -0.149425 46.5346 0.446322 45.9306C1.04207 45.3265 2.00501 45.3265 2.60076 45.9306L35.9991 79.7928L69.3975 45.9306C69.9932 45.3265 70.9562 45.3265 71.5519 45.9306C72.1477 46.5346 72.1477 47.5109 71.5519 48.1149L37.0763 83.0693C36.7792 83.3721 36.3892 83.522 35.9991 83.522Z" fill="white"/>
</g>
<defs>
<clipPath id="clip0">
<rect width="72" height="73" fill="white"/>
</clipPath>
<clipPath id="clip1">
<rect width="72" height="73" fill="white" transform="translate(0 28)"/>
</clipPath>
</defs>
</svg>
